<?xml version="1.0" standalone="no"?>
<!DOCTYPE svg PUBLIC "-//W3C//DTD SVG 20010904//EN"
 "http://www.w3.org/TR/2001/REC-SVG-20010904/DTD/svg10.dtd">
<svg version="1.0" xmlns="http://www.w3.org/2000/svg"
 width="260.000000pt" height="260.000000pt" viewBox="0 0 260.000000 260.000000"
 preserveAspectRatio="xMidYMid meet">
<metadata>
Created by potrace 1.11, written by Peter Selinger 2001-2013
</metadata>
<g transform="translate(0.000000,260.000000) scale(0.100000,-0.100000)"
fill="#000000" stroke="none">
<path d="M423 2212 l-33 -3 0 -727 c0 -700 -1 -730 -20 -801 -25 -88 -72 -165
-134 -217 -58 -48 -61 -74 -8 -75 84 -2 167 3 180 10 42 23 107 103 140 170
l37 76 5 629 5 629 159 -229 c88 -126 177 -253 199 -282 l38 -53 172 238 c95
131 188 259 206 285 l34 48 0 140 c0 78 -2 143 -5 145 -2 3 -92 -121 -198
-275 -107 -154 -197 -280 -201 -280 -3 0 -93 128 -199 285 -107 157 -198 285
-204 286 -69 3 -147 3 -173 1z"/>
<path d="M2226 2202 c-18 -2 -47 -22 -81 -55 -56 -56 -75 -88 -108 -176 -19
-53 -20 -80 -22 -581 -1 -289 -5 -547 -9 -575 -23 -161 -131 -249 -304 -247
-114 2 -186 33 -238 103 -49 67 -56 114 -60 384 -3 303 -2 275 -15 275 -20 0
-117 -107 -143 -158 -58 -115 -71 -296 -31 -447 56 -211 212 -321 470 -331
276 -10 459 119 510 361 12 56 15 168 15 574 0 555 1 569 63 685 18 34 53 77
84 104 62 54 69 82 21 83 -18 0 -53 1 -78 2 -25 1 -58 1 -74 -1z"/>
</g>
</svg>
